<svg xmlns="http://www.w3.org/2000/svg" version="1.1" xmlns:xlink="http://www.w3.org/1999/xlink" width="157" height="79"><svg width="157" height="79" viewBox="0 0 157 79" fill="none" xmlns="http://www.w3.org/2000/svg">
<path d="M37.5521 2.206L3.06456 36.3356C1.37554 38.0071 1.37089 40.7343 3.05419 42.4116L35.8425 75.0818C37.4891 76.7225 40.144 76.7496 41.8238 75.1428L55.4319 62.126C57.1697 60.4638 57.1979 57.6967 55.4944 55.9994L41.9099 42.4637C40.2064 40.7663 40.2346 37.9993 41.9724 36.337L55.6416 23.2619C57.2968 21.6785 59.9051 21.6786 61.5603 23.2619L75.4192 36.5185C77.0825 38.1095 79.7061 38.1007 81.3587 36.4986L94.8046 23.4632C96.5231 21.7972 96.542 19.0458 94.8464 17.3564L79.6516 2.2163C78.8491 1.41673 77.7625 0.967773 76.6297 0.967773H40.5637C39.4359 0.967773 38.3537 1.41273 37.5521 2.206Z" fill="#374151"></path>
<path d="M118.717 76.794L153.205 42.6644C154.894 40.9929 154.898 38.2657 153.215 36.5884L120.427 3.91822C118.78 2.27753 116.125 2.25044 114.445 3.85719L100.837 16.874C99.0995 18.5362 99.0713 21.3033 100.775 23.0006L114.359 36.5363C116.063 38.2337 116.035 41.0007 114.297 42.663L100.628 55.7381C98.9724 57.3215 96.3641 57.3214 94.7088 55.7381L80.8499 42.4815C79.1866 40.8905 76.563 40.8993 74.9105 42.5014L61.4646 55.5368C59.7461 57.2028 59.7272 59.9542 61.4227 61.6436L76.6176 76.7837C77.42 77.5833 78.5067 78.0322 79.6395 78.0322H115.706C116.833 78.0322 117.915 77.5873 118.717 76.794Z" fill="#2B73FF"></path>
</svg><style>@media (prefers-color-scheme: light) { :root { filter: none; } }
@media (prefers-color-scheme: dark) { :root { filter: none; } }
</style></svg>