<svg width="689" height="139" viewBox="0 0 689 139" fill="none" xmlns="http://www.w3.org/2000/svg">
<path d="M50.5521 32.206L16.0646 66.3356C14.3755 68.0071 14.3709 70.7343 16.0542 72.4116L48.8425 105.082C50.4891 106.722 53.144 106.75 54.8238 105.143L68.4319 92.126C70.1697 90.4638 70.1979 87.6967 68.4944 85.9994L54.9099 72.4637C53.2064 70.7663 53.2346 67.9993 54.9724 66.337L68.6416 53.2619C70.2968 51.6785 72.9051 51.6786 74.5603 53.2619L88.4192 66.5185C90.0825 68.1095 92.7061 68.1007 94.3587 66.4986L107.805 53.4632C109.523 51.7972 109.542 49.0458 107.846 47.3564L92.6516 32.2163C91.8491 31.4167 90.7625 30.9678 89.6297 30.9678H53.5637C52.4359 30.9678 51.3537 31.4127 50.5521 32.206Z" fill="white"/>
<path d="M131.717 106.794L166.205 72.6644C167.894 70.9929 167.898 68.2657 166.215 66.5884L133.427 33.9182C131.78 32.2775 129.125 32.2504 127.445 33.8572L113.837 46.874C112.099 48.5362 112.071 51.3033 113.775 53.0006L127.359 66.5363C129.063 68.2337 129.035 71.0007 127.297 72.663L113.628 85.7381C111.972 87.3215 109.364 87.3214 107.709 85.7381L93.8499 72.4815C92.1866 70.8905 89.563 70.8993 87.9105 72.5014L74.4646 85.5368C72.7461 87.2028 72.7272 89.9542 74.4227 91.6436L89.6176 106.784C90.42 107.583 91.5067 108.032 92.6395 108.032H128.706C129.833 108.032 130.915 107.587 131.717 106.794Z" fill="#2B73FF"/>
<path d="M200.866 106V31.1H230.184C235.463 31.1 239.85 31.9203 243.345 33.561C246.912 35.2017 249.587 37.4843 251.37 40.409C253.154 43.2623 254.045 46.5793 254.045 50.36C254.045 54.1407 253.225 57.315 251.584 59.883C249.944 62.451 247.768 64.4127 245.057 65.768C242.418 67.1233 239.529 67.9437 236.39 68.229L237.995 67.052C241.348 67.1233 244.344 68.015 246.983 69.727C249.694 71.439 251.834 73.686 253.403 76.468C254.973 79.1787 255.757 82.2103 255.757 85.563C255.757 89.4863 254.794 93.0173 252.868 96.156C251.014 99.2233 248.267 101.649 244.629 103.432C240.991 105.144 236.533 106 231.254 106H200.866ZM213.706 95.514H229.328C233.537 95.514 236.818 94.5153 239.172 92.518C241.526 90.5207 242.703 87.7387 242.703 84.172C242.703 80.6053 241.491 77.7877 239.065 75.719C236.64 73.579 233.323 72.509 229.114 72.509H213.706V95.514ZM213.706 62.772H228.365C232.502 62.772 235.641 61.8447 237.781 59.99C239.921 58.064 240.991 55.4247 240.991 52.072C240.991 48.7907 239.921 46.2227 237.781 44.368C235.641 42.442 232.467 41.479 228.258 41.479H213.706V62.772ZM292.879 107.284C287.529 107.284 282.821 106.143 278.755 103.86C274.689 101.506 271.514 98.2247 269.232 94.016C266.949 89.8073 265.808 84.9567 265.808 79.464C265.808 73.7573 266.913 68.764 269.125 64.484C271.407 60.204 274.582 56.8513 278.648 54.426C282.785 52.0007 287.564 50.788 292.986 50.788C298.264 50.788 302.865 51.965 306.789 54.319C310.712 56.673 313.744 59.8473 315.884 63.842C318.024 67.7653 319.094 72.188 319.094 77.11C319.094 77.8233 319.094 78.608 319.094 79.464C319.094 80.32 319.022 81.2117 318.88 82.139H275.01V73.9H306.147C306.004 69.9767 304.684 66.9093 302.188 64.698C299.691 62.4153 296.588 61.274 292.879 61.274C290.239 61.274 287.814 61.8803 285.603 63.093C283.391 64.3057 281.644 66.1247 280.36 68.55C279.076 70.904 278.434 73.9 278.434 77.538V80.641C278.434 83.9937 279.04 86.8827 280.253 89.308C281.537 91.7333 283.249 93.588 285.389 94.872C287.6 96.0847 290.061 96.691 292.772 96.691C295.768 96.691 298.229 96.049 300.155 94.765C302.152 93.481 303.614 91.769 304.542 89.629H317.596C316.597 92.9817 314.956 96.0133 312.674 98.724C310.391 101.363 307.573 103.468 304.221 105.037C300.868 106.535 297.087 107.284 292.879 107.284ZM331.377 106V31.1H358.234C364.155 31.1 369.041 32.1343 372.893 34.203C376.816 36.2003 379.705 38.911 381.56 42.335C383.486 45.6877 384.449 49.504 384.449 53.784C384.449 57.7787 383.522 61.488 381.667 64.912C379.812 68.336 376.923 71.0823 373 73.151C369.077 75.2197 364.048 76.254 357.913 76.254H344.217V106H331.377ZM370.432 106L354.703 72.937H368.613L385.091 106H370.432ZM344.217 66.731H357.378C362.157 66.731 365.653 65.5897 367.864 63.307C370.147 60.953 371.288 57.8857 371.288 54.105C371.288 50.3957 370.182 47.4353 367.971 45.224C365.76 42.9413 362.229 41.8 357.378 41.8H344.217V66.731ZM419.207 107.284C414.071 107.284 409.435 106.107 405.297 103.753C401.231 101.328 398.021 98.0107 395.667 93.802C393.385 89.522 392.243 84.6357 392.243 79.143C392.243 73.5077 393.42 68.5857 395.774 64.377C398.128 60.097 401.338 56.78 405.404 54.426C409.542 52.0007 414.178 50.788 419.314 50.788C424.45 50.788 429.051 52.0007 433.117 54.426C437.255 56.78 440.465 60.0613 442.747 64.27C445.101 68.4787 446.278 73.4007 446.278 79.036C446.278 84.6713 445.101 89.5933 442.747 93.802C440.393 98.0107 437.148 101.328 433.01 103.753C428.944 106.107 424.343 107.284 419.207 107.284ZM419.207 96.263C421.775 96.263 424.094 95.621 426.162 94.337C428.302 93.053 430.014 91.127 431.298 88.559C432.582 85.991 433.224 82.8167 433.224 79.036C433.224 75.2553 432.582 72.1167 431.298 69.62C430.086 67.052 428.409 65.126 426.269 63.842C424.201 62.558 421.882 61.916 419.314 61.916C416.818 61.916 414.499 62.558 412.359 63.842C410.219 65.126 408.507 67.052 407.223 69.62C405.939 72.1167 405.297 75.2553 405.297 79.036C405.297 82.8167 405.939 85.991 407.223 88.559C408.507 91.127 410.184 93.053 412.252 94.337C414.392 95.621 416.711 96.263 419.207 96.263ZM484.42 107.284C479.142 107.284 474.398 106.107 470.189 103.753C466.052 101.328 462.806 98.0107 460.452 93.802C458.17 89.522 457.028 84.6713 457.028 79.25C457.028 73.6147 458.17 68.6927 460.452 64.484C462.806 60.204 466.052 56.8513 470.189 54.426C474.398 52.0007 479.177 50.788 484.527 50.788C491.233 50.788 496.868 52.5713 501.433 56.138C505.999 59.6333 508.923 64.4483 510.207 70.583H496.725C496.012 67.8723 494.514 65.7323 492.231 64.163C490.02 62.5937 487.381 61.809 484.313 61.809C481.674 61.809 479.249 62.4867 477.037 63.842C474.897 65.1973 473.185 67.159 471.901 69.727C470.689 72.295 470.082 75.398 470.082 79.036C470.082 81.818 470.439 84.279 471.152 86.419C471.866 88.559 472.864 90.378 474.148 91.876C475.504 93.3027 477.037 94.4083 478.749 95.193C480.461 95.9777 482.316 96.37 484.313 96.37C486.382 96.37 488.237 96.049 489.877 95.407C491.589 94.6937 493.016 93.6593 494.157 92.304C495.37 90.9487 496.226 89.3437 496.725 87.489H510.207C508.923 93.481 505.999 98.296 501.433 101.934C496.868 105.501 491.197 107.284 484.42 107.284ZM557.363 106L533.502 76.468L554.902 52.072H570.203L543.56 81.711V71.76L573.413 106H557.363ZM522.588 106V28.96H535.428V106H522.588ZM603.011 107.284C597.661 107.284 592.953 106.143 588.887 103.86C584.821 101.506 581.647 98.2247 579.364 94.016C577.082 89.8073 575.94 84.9567 575.94 79.464C575.94 73.7573 577.046 68.764 579.257 64.484C581.54 60.204 584.714 56.8513 588.78 54.426C592.918 52.0007 597.697 50.788 603.118 50.788C608.397 50.788 612.998 51.965 616.921 54.319C620.845 56.673 623.876 59.8473 626.016 63.842C628.156 67.7653 629.226 72.188 629.226 77.11C629.226 77.8233 629.226 78.608 629.226 79.464C629.226 80.32 629.155 81.2117 629.012 82.139H585.142V73.9H616.279C616.137 69.9767 614.817 66.9093 612.32 64.698C609.824 62.4153 606.721 61.274 603.011 61.274C600.372 61.274 597.947 61.8803 595.735 63.093C593.524 64.3057 591.776 66.1247 590.492 68.55C589.208 70.904 588.566 73.9 588.566 77.538V80.641C588.566 83.9937 589.173 86.8827 590.385 89.308C591.669 91.7333 593.381 93.588 595.521 94.872C597.733 96.0847 600.194 96.691 602.904 96.691C605.9 96.691 608.361 96.049 610.287 94.765C612.285 93.481 613.747 91.769 614.674 89.629H627.728C626.73 92.9817 625.089 96.0133 622.806 98.724C620.524 101.363 617.706 103.468 614.353 105.037C611.001 106.535 607.22 107.284 603.011 107.284ZM641.082 106V52.072H652.531L653.708 62.13C654.992 59.776 656.597 57.7787 658.523 56.138C660.449 54.426 662.696 53.1063 665.264 52.179C667.903 51.2517 670.792 50.788 673.931 50.788V64.377H669.437C667.297 64.377 665.264 64.6623 663.338 65.233C661.412 65.7323 659.735 66.5883 658.309 67.801C656.953 68.9423 655.883 70.5473 655.099 72.616C654.314 74.6133 653.922 77.1457 653.922 80.213V106H641.082Z" fill="white"/>
</svg>
